<?xml version="1.0" encoding="utf-8"?>
<!-- Generator: Adobe Illustrator 18.1.0, SVG Export Plug-In . SVG Version: 6.00 Build 0)  -->
<!DOCTYPE svg PUBLIC "-//W3C//DTD SVG 1.1//EN" "http://www.w3.org/Graphics/SVG/1.1/DTD/svg11.dtd">
<svg version="1.1" id="Layer_1" xmlns="http://www.w3.org/2000/svg" xmlns:xlink="http://www.w3.org/1999/xlink" x="0px" y="0px"
	 viewBox="0 0 30.129 42.182" style="enable-background:new 0 0 30.129 42.182;" xml:space="preserve">
<g>
	<g>
		<path style="opacity:0.5;fill-rule:evenodd;clip-rule:evenodd;fill:#BC181C;" d="M15.044,41.37
			c-0.285-0.352-0.563-0.693-0.835-1.041c-4.056-5.16-7.111-9.662-9.61-14.168c-1.353-2.439-2.842-5.36-3.638-8.529
			C-0.247,12.807,0.94,8.501,4.487,4.836c2.252-2.324,5.076-3.73,8.396-4.177c0.787-0.104,1.568-0.156,2.32-0.156
			c3.71,0,7.033,1.276,9.878,3.797c2.423,2.141,3.902,4.85,4.399,8.05c0.315,2.045,0.129,4.081-0.571,6.229
			c-1.495,4.57-3.902,8.659-5.83,11.711c-2.347,3.709-4.969,7.346-8.013,11.107L15.044,41.37z M15.047,6.788
			c-4.314,0-7.839,3.356-7.854,7.481c-0.01,1.928,0.755,3.764,2.153,5.168c1.481,1.49,3.563,2.346,5.713,2.347
			c4.341,0,7.875-3.362,7.882-7.497c0.006-4.114-3.514-7.477-7.847-7.499H15.047z"/>
		<path style="fill:#BC181C;" d="M15.204,1.004L15.204,1.004c3.584,0,6.794,1.235,9.546,3.672c2.331,2.061,3.757,4.67,4.234,7.751
			c0.304,1.963,0.122,3.926-0.552,5.996c-1.478,4.516-3.864,8.572-5.776,11.6c-2.234,3.532-4.72,6.996-7.591,10.576
			c-0.155-0.193-0.309-0.386-0.461-0.581c-4.041-5.137-7.08-9.617-9.565-14.099c-1.336-2.413-2.808-5.297-3.589-8.409
			c-1.163-4.646-0.02-8.792,3.398-12.323c2.171-2.242,4.896-3.6,8.101-4.029C13.714,1.056,14.473,1.004,15.204,1.004 M15.058,22.287
			h0.006c4.612,0,8.371-3.59,8.378-7.999c0.009-4.39-3.737-7.979-8.395-8.002c-4.592,0-8.341,3.581-8.356,7.98
			c-0.01,2.063,0.806,4.024,2.298,5.525C10.565,21.376,12.778,22.285,15.058,22.287 M15.204,0c-0.778,0-1.575,0.054-2.387,0.162
			C9.4,0.62,6.465,2.072,4.125,4.487c-3.675,3.797-4.904,8.261-3.649,13.267c0.763,3.049,2.15,5.886,3.684,8.651
			c2.78,5.013,6.09,9.7,9.654,14.233c0.398,0.512,0.811,1.008,1.244,1.543c0.107-0.122,0.17-0.185,0.226-0.255
			c2.963-3.646,5.726-7.422,8.221-11.367c2.374-3.758,4.508-7.621,5.882-11.825c0.69-2.118,0.93-4.268,0.591-6.46
			c-0.51-3.279-2.008-6.093-4.562-8.352C22.457,1.305,19.035,0,15.204,0L15.204,0z M15.064,21.282c-0.002,0-0.003,0-0.003,0
			c-4.074-0.002-7.385-3.153-7.365-7.01c0.014-3.859,3.307-6.982,7.351-6.982c0.014,0,0.028,0,0.044,0
			c4.069,0.021,7.355,3.146,7.348,6.996C22.432,18.152,19.135,21.282,15.064,21.282L15.064,21.282z"/>
	</g>
</g>
</svg>
