<?xml version="1.0" encoding="utf-8"?>
<!-- Generator: Adobe Illustrator 18.1.0, SVG Export Plug-In . SVG Version: 6.00 Build 0)  -->
<!DOCTYPE svg PUBLIC "-//W3C//DTD SVG 1.1//EN" "http://www.w3.org/Graphics/SVG/1.1/DTD/svg11.dtd">
<svg version="1.1" id="Layer_1" xmlns="http://www.w3.org/2000/svg" xmlns:xlink="http://www.w3.org/1999/xlink" x="0px" y="0px"
	 viewBox="0 0 30 42" style="enable-background:new 0 0 30 42;" xml:space="preserve">
<path style="fill:#BC181C;" d="M29.849,12.221c-0.507-3.265-1.999-6.065-4.543-8.315C22.361,1.299,18.953,0,15.139,0
	c-0.775,0-1.568,0.054-2.377,0.161C9.359,0.618,6.437,2.062,4.108,4.468c-3.659,3.78-4.884,8.225-3.635,13.21
	c0.762,3.035,2.143,5.859,3.669,8.613c2.769,4.991,6.063,9.659,9.612,14.173c0.397,0.509,0.808,1.003,1.238,1.536
	c0.106-0.121,0.17-0.185,0.226-0.255c2.949-3.629,5.7-7.389,8.185-11.317c2.364-3.741,4.488-7.588,5.857-11.773
	C29.948,16.544,30.186,14.405,29.849,12.221z"/>
<path style="fill:#FFFFFF;" d="M22.343,14.225c-0.007,3.85-3.29,6.966-7.344,6.966c-0.001,0-0.003,0-0.003,0
	c-4.056-0.002-7.352-3.14-7.334-6.98c0.015-3.842,3.293-6.951,7.32-6.951c0.015,0,0.029,0,0.044,0
	C19.078,7.279,22.349,10.392,22.343,14.225z"/>
</svg>
